<mxfile host="65bd71144e">
    <diagram id="1NazMJZmhKwGItylfO-l" name="第 1 页">
        <mxGraphModel dx="1132" dy="773" grid="1" gridSize="10" guides="1" tooltips="1" connect="1" arrows="1" fold="1" page="1" pageScale="1" pageWidth="827" pageHeight="1169" math="0" shadow="0">
            <root>
                <mxCell id="0"/>
                <mxCell id="1" parent="0"/>
                <mxCell id="2" value="" style="shape=umlLifeline;participant=umlActor;perimeter=lifelinePerimeter;whiteSpace=wrap;html=1;container=1;collapsible=0;recursiveResize=0;verticalAlign=top;spacingTop=36;outlineConnect=0;" parent="1" vertex="1">
                    <mxGeometry x="210" y="160" width="20" height="200" as="geometry"/>
                </mxCell>
                <mxCell id="3" value="OJ" style="shape=umlLifeline;perimeter=lifelinePerimeter;whiteSpace=wrap;html=1;container=1;collapsible=0;recursiveResize=0;outlineConnect=0;" parent="1" vertex="1">
                    <mxGeometry x="350" y="160" width="100" height="200" as="geometry"/>
                </mxCell>
                <mxCell id="4" value="" style="html=1;points=[];perimeter=orthogonalPerimeter;" parent="3" vertex="1">
                    <mxGeometry x="45" y="80" width="10" height="80" as="geometry"/>
                </mxCell>
                <mxCell id="7" value="" style="html=1;points=[];perimeter=orthogonalPerimeter;" parent="3" vertex="1">
                    <mxGeometry x="49" y="110" width="10" height="40" as="geometry"/>
                </mxCell>
                <mxCell id="8" value="validate(username, password)" style="edgeStyle=orthogonalEdgeStyle;html=1;align=left;spacingLeft=2;endArrow=block;rounded=0;entryX=1;entryY=0;" parent="3" target="7" edge="1">
                    <mxGeometry relative="1" as="geometry">
                        <mxPoint x="54" y="90" as="sourcePoint"/>
                        <Array as="points">
                            <mxPoint x="84" y="90"/>
                        </Array>
                    </mxGeometry>
                </mxCell>
                <mxCell id="5" value="login(username, password)" style="html=1;verticalAlign=bottom;endArrow=block;entryX=0;entryY=0;" parent="1" source="2" target="4" edge="1">
                    <mxGeometry relative="1" as="geometry">
                        <mxPoint x="325" y="240" as="sourcePoint"/>
                    </mxGeometry>
                </mxCell>
                <mxCell id="6" value="return" style="html=1;verticalAlign=bottom;endArrow=open;dashed=1;endSize=8;exitX=0;exitY=0.95;" parent="1" source="4" target="2" edge="1">
                    <mxGeometry relative="1" as="geometry">
                        <mxPoint x="325" y="316" as="targetPoint"/>
                    </mxGeometry>
                </mxCell>
            </root>
        </mxGraphModel>
    </diagram>
</mxfile>